# xmcd
#
# Track frame offsets:
#	150
#	17009
#	33383
#	51107
#	66599
#	81638
#	98123
#	114736
#	129226
#	145506
#	163062
#	180163
#	196357
#
# Disc length: 2975 seconds
#
# Revision: 9
# Processed by: cddbd v1.5.2PL0 Copyright (c) Steve Scherf et al.
# Submitted via: EasyCDDAExtractor 15.3.0.1
#
DISCID=af0b9d0d
DTITLE=Paulina Rubio - Ananda
DYEAR=2006
DGENRE=Latin
TTITLE0=Ni Una Sola Palabra
TTITLE1=Nada Puede Cambiarme
TTITLE2=Ayudame
TTITLE3=N.O.
TTITLE4=Que Me Voy A Quedar
TTITLE5=Aunque No Sea Conmigo
TTITLE6=No Te Cambio
TTITLE7=Retrato
TTITLE8=Mienteme Una Vez Mas
TTITLE9=Hoy
TTITLE10=Lo Que Pensamos
TTITLE11=Tu Y Yo
TTITLE12=Sin Final
EXTD=YEAR: 2006
EXTT0=
EXTT1=
EXTT2=
EXTT3=
EXTT4=
EXTT5=
EXTT6=
EXTT7=
EXTT8=
EXTT9=
EXTT10=
EXTT11=
EXTT12=
PLAYORDER=
